<svg xmlns="http://www.w3.org/2000/svg" data-name="Layer 1" viewBox="0 0 512 512"><path d="M233.5,224h-67a7.50006,7.50006,0,0,0-7.5,7.5v67a7.50006,7.50006,0,0,0,7.5,7.5h67a7.50006,7.50006,0,0,0,7.5-7.5v-67A7.50006,7.50006,0,0,0,233.5,224ZM226,291H174V239h52ZM474.5,161H398V127.5A37.54227,37.54227,0,0,0,360.5,90H353V37.5A37.54227,37.54227,0,0,0,315.5,0h-119A37.54227,37.54227,0,0,0,159,37.5V90h-7.5A37.54227,37.54227,0,0,0,114,127.5V161H37.5A37.54227,37.54227,0,0,0,0,198.5v306A7.50006,7.50006,0,0,0,7.5,512h497a7.49974,7.49974,0,0,0,7.5-7.5v-306A37.54227,37.54227,0,0,0,474.5,161ZM114,411H62V359h52Zm0-120H62V239h52Zm0-67H54.5a7.50006,7.50006,0,0,0-7.5,7.5v67a7.50006,7.50006,0,0,0,7.5,7.5H114v38H54.5a7.50006,7.50006,0,0,0-7.5,7.5v67a7.50006,7.50006,0,0,0,7.5,7.5H114v71H15V198.5A22.52523,22.52523,0,0,1,37.5,176H114ZM174,37.5A22.52523,22.52523,0,0,1,196.5,15h119A22.52554,22.52554,0,0,1,338,37.5v119A22.52554,22.52554,0,0,1,315.5,179h-119A22.52523,22.52523,0,0,1,174,156.5ZM295.5,497h-79V373.5A22.52523,22.52523,0,0,1,239,351h34a22.52554,22.52554,0,0,1,22.5,22.5Zm87.5,0H310.5V373.5A37.54227,37.54227,0,0,0,273,336H239a37.54227,37.54227,0,0,0-37.5,37.5V497H129V127.5A22.52523,22.52523,0,0,1,151.5,105H159v51.5A37.54227,37.54227,0,0,0,196.5,194h119A37.54227,37.54227,0,0,0,353,156.5V105h7.5A22.52554,22.52554,0,0,1,383,127.5Zm15-258h52v52H398Zm0,120h52v52H398Zm99,138H398V426h59.5a7.49974,7.49974,0,0,0,7.5-7.5v-67a7.49974,7.49974,0,0,0-7.5-7.5H398V306h59.5a7.49974,7.49974,0,0,0,7.5-7.5v-67a7.49974,7.49974,0,0,0-7.5-7.5H398V176h76.5A22.52554,22.52554,0,0,1,497,198.5ZM194.21729,142.22559H317.78223a7.5,7.5,0,0,0,0-15H313.845A57.95816,57.95816,0,0,0,278.25977,81.174V74.22021a22.44483,22.44483,0,1,0-44.88965,0v6.95606a57.9571,57.9571,0,0,0-35.57935,46.04932h-3.57348a7.5,7.5,0,1,0,0,15Zm54.15283-68.00538a7.45839,7.45839,0,0,1,7.4497-7.45019,7.45445,7.45445,0,0,1,7.44,7.45019v3.10785a58.04142,58.04142,0,0,0-6.71289-.40326h-1.458a58.04109,58.04109,0,0,0-6.71875.40394Zm6.71875,17.70459h1.458a42.87161,42.87161,0,0,1,42.14257,35.30079H212.9458A42.87293,42.87293,0,0,1,255.08887,91.9248ZM345.5,224h-67a7.49974,7.49974,0,0,0-7.5,7.5v67a7.49974,7.49974,0,0,0,7.5,7.5h67a7.49974,7.49974,0,0,0,7.5-7.5v-67A7.49974,7.49974,0,0,0,345.5,224ZM338,291H286V239h52Z"/></svg>