<svg xmlns="http://www.w3.org/2000/svg" viewBox="0 0 64 64"><path d="M50,28H39.36L27.64,18.23A1,1,0,0,0,27,18H22a1,1,0,0,0-.89.54,1,1,0,0,0,.07,1L27.08,28H18.62l-2.73-5.45A1,1,0,0,0,15,22H10a1,1,0,0,0-1,1v6.93A8.08,8.08,0,0,0,17.07,38h8.64l-4.59,8.53A1,1,0,0,0,22,48h5a1,1,0,0,0,.73-.32L36.67,38H50a4.82,4.82,0,0,0,5-5A4.82,4.82,0,0,0,50,28ZM23.92,20h2.72l9.6,8H29.52Zm2.64,26H23.67L29.6,35h7.12L35.5,36.32h0ZM50,36H38.51l1.22-1.32A1,1,0,0,0,39,33H29a1,1,0,0,0-.88.52L26.78,36H17.07A6.07,6.07,0,0,1,11,29.93V24h3.38l2.73,5.45A1,1,0,0,0,18,30H50a3,3,0,1,1,0,6Z" data-name="39-plane, transportation, travel, transport, airplane, flight"/></svg>