<svg id="Layer_1" data-name="Layer 1" xmlns="http://www.w3.org/2000/svg" viewBox="0 0 100 120"><defs><style>.cls-1{fill:white;}.cls-1,.cls-2{stroke:#000;stroke-miterlimit:10;}.cls-2{font-size:48px;stroke-width:2px;font-family:PRIMETIME-Regular, PRIMETIME;}.cls-3{letter-spacing:0.04em;}</style></defs><path class="cls-1" d="M74,57.33s0,0,0,.05c.67,1.38,1.47,2.93,2.43,4.7a95.13,95.13,0,0,0,5.09,8.66"/><path class="cls-1" d="M58.36,57.08l1.94.08c6.82.25,10.93.29,13.69.22,2.12-.05,3.44-.16,4.55-.27.82-.09,1.56-.17,2.23-.26A21.23,21.23,0,0,0,87,55.4a16.1,16.1,0,0,0,8.34-7.68,14.16,14.16,0,0,0,.62-11c-2.49-6.51-9.09-8.22-9.59-8.34a13.91,13.91,0,0,0-13.48,4.15c-4.36,4.86-3.35,11.23-3,13.37a27.09,27.09,0,0,0,1,3.69c.18.57.38,1.19.63,1.86,0,0,0,0,0,.06"/><path class="cls-1" d="M47.11,65.07a14.46,14.46,0,0,0-1.75-1.9c-2.79-2.47-7.27-6.43-13.53-6.12a15,15,0,0,0-10.73,5.4c-.36.45-4.88,6.34-2.44,13.27a14.24,14.24,0,0,0,12.81,9.12c5.09.18,8.73-2.78,11.87-5.34a21.81,21.81,0,0,0,3.14-3.08,58.88,58.88,0,0,0,4.18-5.87l1.08-1.67a77.86,77.86,0,0,0,6.62-11.8c.43-1,.86-2,1.26-3.14.36-.95.68-1.82,1-2.65,1.53-4.27,2.27-7.11,1.73-10.78-.3-2-1.16-7.78-6.28-11a14.07,14.07,0,0,0-21.3,11.72c0,6.58,5,10.57,6.06,11.4,2.85,2.25,5.77,2.91,9.28,3.69.55.12,1.06.22,1.63.3"/><path class="cls-1" d="M58.12,84.15l-1.56-2.88c-2.4-4.46-4.3-8-5.9-10.72"/><path class="cls-1" d="M71,91a13.43,13.43,0,0,0-.54,1.78,20.18,20.18,0,0,0-.57,7.77,15,15,0,0,0,4.51,9.6,14,14,0,0,0,10.53,3.47,13.78,13.78,0,0,0,11.35-9.13c2.31-6.75-1.76-13.24-5.6-16.12a14.3,14.3,0,0,0-8.14-3.06L80.39,85c-1.4-.15-3.2-.32-6.51-.49l-1.45-.07c-4.51-.2-7.5-.46-12.6-.36l-1.71,0c-3.24.09-5.53.23-7.17.38a15.43,15.43,0,0,0-3.93.73,18.75,18.75,0,0,0-6.79,4.35c-1.47,1.51-5.1,5.21-5,10.84a13.35,13.35,0,0,0,12.18,13.07c.88.08,6.62.94,10.88-3.12a14.72,14.72,0,0,0,3.84-6.06c.37-1.15,1.44-4.44-.1-10.84a25.53,25.53,0,0,0-.9-2.94"/><path class="cls-1" d="M85.4,76.11s0,0,0,0a20.11,20.11,0,0,0,6.25,5.74c2,1.12,6.36,3.61,11.76,2.33a13.73,13.73,0,0,0,8.92-6.74c3-5.8.32-11.5,0-12.24a14.41,14.41,0,0,0-12.91-7.82c-4.58.09-8.2,2.74-10.06,4.09a23.7,23.7,0,0,0-3.16,2.8c-.28.29-.55.58-.8.86a32.61,32.61,0,0,0-3.86,5.57c-.36.6-.74,1.26-1.15,2-2.52,4.37-3.77,6.56-5.55,10l-.93,1.83"/><path class="cls-1" d="M85.35,76.06s0,0,.05,0"/><path class="cls-1" d="M80.75,56.81l0,0c1.67,3.31,2.87,5.41,3,5.65.57,1,1.09,1.87,1.58,2.67"/><path class="cls-1" d="M78.1,51.31l0,.08"/><path class="cls-1" d="M78.1,51.31A10.59,10.59,0,0,0,80.78,51c2.35-.61,7.76-2,9.64-6.64a8.32,8.32,0,0,0-.21-7,8.39,8.39,0,0,0-10.57-3.21c-4.87,2.41-4.19,9.27-4,10.37a14,14,0,0,0,1.35,4.14C77.33,49.6,77.72,50.47,78.1,51.31Z"/><path class="cls-1" d="M60.59,51.29c7,.12,9.87.12,10.86.11h.31c3.25,0,5.13,0,6.34-.09"/><path class="cls-1" d="M54.33,51.14a17.7,17.7,0,0,0,1.35-4.61c.53-3.45,1.19-7.69-1.55-10.37-2.54-2.48-7.6-3.25-10.58-.52-3.35,3.06-2.07,8.66.21,11.41,1.74,2.1,4.32,2.84,6.32,3.42A18.06,18.06,0,0,0,54.33,51.14Z"/><path class="cls-1" d="M43.35,71a65.08,65.08,0,0,0,3.76-5.88c1.12-1.93,2.4-4.27,3.9-7.14.25-.47.49-.92.7-1.35,1.22-2.35,2-4.06,2.62-5.44"/><path class="cls-1" d="M43.35,71c-1.84-3-3.06-4.46-4.75-5.65-2.28-1.63-5.62-3.18-9.67-1.56a8,8,0,0,0-4.87,8.09c.52,4.33,5,6.81,8.39,6.84.92,0,3.19-.14,7.36-3.83A23.2,23.2,0,0,0,43.35,71Z"/><path class="cls-1" d="M43.41,71,43.35,71"/><path class="cls-1" d="M51,84.53c-1.8-3.25-3.25-5.91-4.47-8.11l0-.07"/><path class="cls-1" d="M54.35,90.6c-3.58.09-6.4.23-9,2.17-.72.54-3.84,2.85-4,6.85,0,.43-.17,4.88,3.42,7.16a7.74,7.74,0,0,0,8.92-.63A9.65,9.65,0,0,0,56.86,98,17.86,17.86,0,0,0,54.35,90.6Z"/><path class="cls-1" d="M71,91c-3.75-.17-6.61-.33-9.84-.39"/><path class="cls-1" d="M77.46,91.22c-.63,1.46-1.2,2.93-1.66,4.36a9.64,9.64,0,0,0-.52,2.79c0,1-.2,5.34,3.22,7.89a8.11,8.11,0,0,0,8.91.52A7.87,7.87,0,0,0,91.15,99c-.82-4.35-3.53-7.47-10.48-7.68Z"/><path class="cls-1" d="M89,70.75c-1,1.41-2.18,3.18-3.59,5.4l-.08.14s-2.41,3.82-5,8.75"/><path class="cls-1" d="M89,70.75c.48.65.79,1,1,1.29,2.79,3.39,4.34,5.21,7,5.91s7.41.47,9.55-3.11A7.86,7.86,0,0,0,105,65.3c-4.22-3.68-10-.7-10.71-.28C93.16,65.71,91.71,67,89,70.75Z"/><path class="cls-1" d="M88.86,70.54c.06.07.1.14.15.21"/><path class="cls-1" d="M77.46,91.22C70,91,62,90.3,54.35,90.6"/></svg>